<svg width="581" height="581" viewBox="0 0 581 581" fill="none" xmlns="http://www.w3.org/2000/svg">
<g clip-path="url(#clip0_2_51)">
<rect width="581" height="581" rx="127.031" fill="#214F4B"/>
<g filter="url(#filter0_f_2_51)">
<ellipse cx="375.41" cy="408.839" rx="182.858" ry="93.2675" fill="#DE3225"/>
</g>
<path d="M228.5 191C90 218 -12.5 283 -39.5 302C-47.6667 358.167 -64.6 473.2 -67 484C-69.4 494.8 44.3333 555.167 101.5 584L649 367.5V-4C620.167 19.5 554.9 73 524.5 99C486.5 131.5 367 164 228.5 191Z" fill="url(#paint0_linear_2_51)"/>
<path d="M161.262 438V130.637H235.552V254.002H356.666V130.637H430.805V438H356.666V314.485H235.552V438H161.262Z" fill="black"/>
<g filter="url(#filter1_bf_2_51)">
<ellipse cx="614.5" cy="89" rx="85.5" ry="93" fill="#0C2122" fill-opacity="0.01"/>
</g>
<g filter="url(#filter2_f_2_51)">
<ellipse cx="617.962" cy="112.621" rx="167.355" ry="75.7223" transform="rotate(-41.7749 617.962 112.621)" fill="#61C7C1"/>
</g>
<path d="M218.753 421.465C78.3715 520.17 -6.07674 520.902 -13.0227 520.902C-30.5704 522.533 -40.3191 544.004 -43 554.535L16.9546 664.573L606.995 588.168C616.622 489.34 624.763 291.173 580.308 289.126C524.741 286.567 359.134 322.759 218.753 421.465Z" fill="url(#paint1_radial_2_51)"/>
<g filter="url(#filter3_f_2_51)">
<ellipse cx="4.27306" cy="568.536" rx="167.355" ry="93.2675" transform="rotate(-59.5166 4.27306 568.536)" fill="#B1EE82"/>
</g>
<g filter="url(#filter4_f_2_51)">
<ellipse cx="585.273" cy="534.536" rx="167.355" ry="93.2675" transform="rotate(-59.5166 585.273 534.536)" fill="#68A357"/>
</g>
</g>
<defs>
<filter id="filter0_f_2_51" x="62.847" y="185.866" width="625.127" height="445.946" filterUnits="userSpaceOnUse" color-interpolation-filters="sRGB">
<feFlood flood-opacity="0" result="BackgroundImageFix"/>
<feBlend mode="normal" in="SourceGraphic" in2="BackgroundImageFix" result="shape"/>
<feGaussianBlur stdDeviation="64.8527" result="effect1_foregroundBlur_2_51"/>
</filter>
<filter id="filter1_bf_2_51" x="465" y="-68" width="299" height="314" filterUnits="userSpaceOnUse" color-interpolation-filters="sRGB">
<feFlood flood-opacity="0" result="BackgroundImageFix"/>
<feGaussianBlur in="BackgroundImageFix" stdDeviation="32"/>
<feComposite in2="SourceAlpha" operator="in" result="effect1_backgroundBlur_2_51"/>
<feBlend mode="normal" in="SourceGraphic" in2="effect1_backgroundBlur_2_51" result="shape"/>
<feGaussianBlur stdDeviation="22" result="effect2_foregroundBlur_2_51"/>
</filter>
<filter id="filter2_f_2_51" x="360.228" y="-135.465" width="515.466" height="496.171" filterUnits="userSpaceOnUse" color-interpolation-filters="sRGB">
<feFlood flood-opacity="0" result="BackgroundImageFix"/>
<feBlend mode="normal" in="SourceGraphic" in2="BackgroundImageFix" result="shape"/>
<feGaussianBlur stdDeviation="61.54" result="effect1_foregroundBlur_2_51"/>
</filter>
<filter id="filter3_f_2_51" x="-235.717" y="293.63" width="479.979" height="549.812" filterUnits="userSpaceOnUse" color-interpolation-filters="sRGB">
<feFlood flood-opacity="0" result="BackgroundImageFix"/>
<feBlend mode="normal" in="SourceGraphic" in2="BackgroundImageFix" result="shape"/>
<feGaussianBlur stdDeviation="61.54" result="effect1_foregroundBlur_2_51"/>
</filter>
<filter id="filter4_f_2_51" x="405.283" y="319.63" width="359.979" height="429.812" filterUnits="userSpaceOnUse" color-interpolation-filters="sRGB">
<feFlood flood-opacity="0" result="BackgroundImageFix"/>
<feBlend mode="normal" in="SourceGraphic" in2="BackgroundImageFix" result="shape"/>
<feGaussianBlur stdDeviation="31.54" result="effect1_foregroundBlur_2_51"/>
</filter>
<linearGradient id="paint0_linear_2_51" x1="578.5" y1="183" x2="-10" y2="454" gradientUnits="userSpaceOnUse">
<stop stop-color="#C7EFCF"/>
<stop offset="0.487322" stop-color="#84E0A8"/>
<stop offset="1" stop-color="#98E88D"/>
</linearGradient>
<radialGradient id="paint1_radial_2_51" cx="0" cy="0" r="1" gradientUnits="userSpaceOnUse" gradientTransform="translate(350.5 538.5) rotate(117.173) scale(141.714 248.117)">
<stop stop-color="#68A357"/>
<stop offset="1" stop-color="#68A357"/>
</radialGradient>
<clipPath id="clip0_2_51">
<rect width="581" height="581" rx="127.031" fill="white"/>
</clipPath>
</defs>
</svg>
